<svg xmlns="http://www.w3.org/2000/svg" xmlns:xlink="http://www.w3.org/1999/xlink"
  viewBox="0 -3 130 42"
  height="50"
  width="150">
  <path
    d="M14 12.68C12.33 5.32 8.85 3.36 7.97 1.97 7.6 1.36 7.28.73 7 .08c-.05.65-.13 1.07-.69 1.56C5.19 2.63.45 6.49.05 14.86c-.37 7.8 5.73 12.61 6.54 13.1.62.31 1.38.01 1.74-.27 2.94-2.02 6.96-7.4 5.67-15.01"
    fill="#10aa50" />
  <path
    d="M7.25 23.81c-.15 1.93-.26 3.05-.65 4.15l.44 3.78h.64a35.4 35.4 0 0 1 .69-4.08c-.82-.41-1.08-2.17-1.11-3.86z"
    fill="#b8c4c2" />
  <path
    d="M8.36 27.68h0c-.83-.38-1.07-2.19-1.11-3.86a79.1 79.1 0 0 0 .18-8.32C7.39 14.03 7.45 2 7.07.24c.26.6.56 1.18.89 1.73.89 1.39 4.37 3.35 6.03 10.71 1.3 7.59-2.7 12.96-5.64 15z"
    fill="#12924f" />
  <g fill="#888">
    <path
      d="M118.11 25.01a1.81 1.81 0 1 1-.02-3.62 1.8 1.8 0 0 1 1.82 1.78c.01.49-.17.96-.51 1.3s-.81.54-1.29.53h0zm0-3.45c-.67 0-1.27.39-1.53 1.01s-.12 1.32.35 1.8 1.18.62 1.79.36 1.02-.85 1.02-1.52a1.6 1.6 0 0 0-.47-1.17c-.31-.31-.73-.48-1.17-.48h0zm.44 2.79l-.47-1.01h-.38v1.01h-.27v-2.29h.67c.5 0 .71.22.71.64 0 .34-.16.54-.45.61l.48 1.04h-.3zm-.83-1.24h.4c.32 0 .44-.11.44-.4s-.12-.39-.48-.39h-.36v.79zm-26.52.26c.49.39 1.47.55 2.33.55 1.12 0 2.21-.21 3.28-1.17 1.09-.99 1.84-2.51 1.84-4.93 0-2.33-.89-4.21-2.7-5.32-1.02-.64-2.35-.9-3.87-.9-.44 0-.89.02-1.14.14a.6.6 0 0 0-.21.33c-.05.41-.05 3.57-.05 5.43l.05 4.9c.02.28.16.76.47.97m-4.65-12.81l2.6.07 4.66-.07c2.05 0 3.77.55 5.01 1.61a6.7 6.7 0 0 1 2.29 5.27c0 3.11-1.42 4.9-2.84 5.92-1.42 1.06-3.26 1.66-5.89 1.66-1.4 0-3.8-.05-5.8-.07h-.04c-.09-.18.17-.9.33-.92.54-.06.69-.08.94-.19.42-.17.52-.39.57-1.15l.05-5.07-.02-4.93c-.07-.71-.37-.9-.98-1.04l-1.31-.21c-.05-.14.31-.76.43-.9m20.33 1.19c-.09.02-.21.25-.21.37l-.05 4.49c.01.06.06.1.12.12l1.68.05c.89 0 1.4-.12 1.68-.25.75-.37 1.09-1.17 1.09-2.05 0-2-1.4-2.76-3.47-2.76a5.9 5.9 0 0 0-.84.05m5.29 9.21c0-2.03-1.49-3.18-4.22-3.18-.12 0-.98-.02-1.19.02-.07.02-.14.07-.14.12l.05 4.7c.05.39.33.94.67 1.11.37.21 1.21.25 1.79.25 1.61 0 3.03-.9 3.03-3.02m-9.49-10.34c.21 0 .83.07 2.41.07l4.14-.05c1.79 0 4.26.65 4.26 3.32 0 1.31-.93 2.37-2.14 2.88-.07.02-.07.07 0 .09 1.72.44 3.24 1.5 3.24 3.52 0 1.98-1.23 3.22-3.03 4.01a9.6 9.6 0 0 1-3.81.64c-1.05 0-3.86-.11-5.42-.09-.16-.07.15-.81.29-.92a4.3 4.3 0 0 0 1.06-.17c.56-.14.62-.32.69-1.15.05-.71.05-3.27.05-5.09v-5c-.02-.64-.26-.85-.7-.97-.35-.07-.93-.14-1.4-.21-.12-.12.24-.81.36-.9M19.16 25.01c-.06-.15-.08-.31-.07-.47-.01-.11.02-.22.07-.31a7.9 7.9 0 0 0 .89-.18c.41-.1.57-.33.59-.85l.05-5.21v-.05c0-.18 0-.42-.22-.59a4.7 4.7 0 0 0-1.23-.54c-.2-.06-.3-.16-.3-.28s.13-.26.38-.31a14.7 14.7 0 0 0 3.14-.81c.07.09.1.21.09.33 0 .07-.01.15-.02.23l-.04.76c.01.06.05.12.12.14s.13.01.18-.04c1.32-1.04 2.51-1.41 3.11-1.41 1 0 1.78.48 2.38 1.46.03.05.08.08.14.08.05 0 .1-.03.13-.07 1.22-.92 2.42-1.47 3.23-1.47 1.91 0 3.04 1.43 3.04 3.81l-.01 2.37-.01 1.84c0 .11.15.42.38.49.28.14.68.21 1.19.29h.02c.04.14-.04.67-.12.78-.13 0-.3-.01-.52-.02l-1.57-.05-2.56.07c-.05-.16-.06-.67-.01-.77l.78-.17c.4-.13.52-.32.54-.85l-.05-4.53c-.12-.83-.74-1.79-2.1-1.79a3.7 3.7 0 0 0-2.09.8c-.05.05-.08.12-.08.2v.02c.09.43.09.93.09 1.69l-.01 1.34.01 2.46c0 .45.27.56.49.64l.31.07.65.14c.04.19.04.39-.01.58-.01.07-.04.14-.08.2l-2.47-.04-1.29.03-.92.02a.9.9 0 0 1-.07-.4c-.01-.13.01-.26.07-.37l.28-.05.65-.13c.34-.11.47-.3.5-.74.07-1.02.12-3.98-.03-4.72-.25-1.19-.92-1.79-2.01-1.79-.64 0-1.44.31-2.09.8-.13.12-.2.3-.19.47v1.22l.03 4.13c.02.25.11.54.57.65a4.2 4.2 0 0 0 .48.09l.38.06c.04.26.02.53-.06.78a11.1 11.1 0 0 1-.74-.03l-1.6-.04-1.64.04-.75.03" />
    <use xlink:href="#B" />
    <use xlink:href="#B" x="35.62" />
    <path
      d="M66.37 16.31c-1.08 0-1.78.85-1.78 2.17s.6 2.88 2.29 2.88c.29 0 .82-.13 1.08-.42.39-.36.65-1.11.65-1.89 0-1.72-.84-2.74-2.24-2.74m-.14 9.09c-.3 0-.6.07-.87.22-.85.54-1.25 1.09-1.25 1.72 0 .59.23 1.06.72 1.48.6.51 1.41.76 2.47.76 2.09 0 3.03-1.12 3.03-2.24 0-.78-.39-1.3-1.19-1.59-.62-.23-1.65-.35-2.91-.35m.14 5.34c-1.26 0-2.16-.26-2.93-.86-.75-.58-1.09-1.44-1.09-2.04a1.6 1.6 0 0 1 .41-1.04 10.8 10.8 0 0 1 1.9-1.52.1.1 0 0 0 .06-.09c0-.05-.03-.09-.07-.1-.96-.37-1.26-.98-1.34-1.31 0-.01 0-.03-.01-.05-.03-.13-.05-.25.12-.38a9.5 9.5 0 0 1 .58-.36 7.2 7.2 0 0 0 .94-.61c.03-.03.05-.08.04-.13s-.04-.09-.08-.11c-1.43-.48-2.15-1.54-2.15-3.16-.01-1.03.48-1.99 1.32-2.59.57-.45 2.02-1 2.95-1h.05c.96.02 1.5.22 2.25.5.43.15.88.23 1.33.21.79 0 1.14-.25 1.44-.54.05.13.07.27.08.41.02.34-.07.67-.26.95-.16.23-.54.39-.89.39-.04 0-.07 0-.11-.01-.18-.01-.37-.04-.54-.09l-.09.03c-.03.04-.01.09.01.15.01.01.01.02.01.04a6.4 6.4 0 0 1 .13.88 3.3 3.3 0 0 1-1.39 2.98c-.7.52-1.53.85-2.4.93h0a7.7 7.7 0 0 0-.28.02l-.27.02h-.02c-.16.04-.57.24-.57.6 0 .3.19.67 1.07.74l.57.04 3.31.42A2.3 2.3 0 0 1 72 26.29c0 1.52-1.08 2.95-2.89 3.82a6.3 6.3 0 0 1-2.73.61m-5.36-6.52c-.51-.07-.89-.14-1.33-.35-.09-.09-.14-.2-.16-.33-.05-.71-.05-2.79-.05-4.14a5 5 0 0 0-.65-2.76 2.8 2.8 0 0 0-2.37-1.24c-.91 0-2.12.62-3.12 1.47-.02.02-.18.17-.17-.06l.06-.98c.02-.16-.04-.32-.15-.43a13.9 13.9 0 0 1-3.17.83c-.49.1-.62.57-.09.74h.01a4.5 4.5 0 0 1 1.2.53c.21.16.19.39.19.58l-.05 5.2c-.02.51-.16.69-.54.78l.03-.01a6.2 6.2 0 0 1-.86.16c-.12.11-.12.78 0 .92l2.4-.07 2.4.07c.14-.16.19-.78.09-.92a4.9 4.9 0 0 1-.96-.14c-.37-.09-.47-.28-.49-.69l-.05-4.95c0-.44.12-.64.26-.76a3.1 3.1 0 0 1 1.91-.69c.65 0 1.09.21 1.42.48a2 2 0 0 1 .67 1.3c.09.87.07 2.63.07 4.14 0 .83-.07 1.04-.37 1.13-.14.07-.51.14-.95.18-.14.14-.09.78 0 .92l2.33-.07 2.42.07c.14-.16.19-.76.09-.92" />
  </g>
  <defs>
    <path id="B"
      d="M42.53 16.4c-.39-.01-.78.1-1.11.31-.81.49-1.22 1.47-1.22 2.92 0 2.7 1.35 4.59 3.29 4.59.52.02 1.03-.16 1.42-.5.6-.49.91-1.48.91-2.87 0-2.66-1.32-4.45-3.29-4.45m.37 8.82c-3.5 0-4.74-2.57-4.74-4.97 0-1.68.69-2.99 2.04-3.9a6.2 6.2 0 0 1 3.15-.93c2.67 0 4.53 1.92 4.53 4.67 0 1.87-.74 3.34-2.15 4.27a6.1 6.1 0 0 1-2.82.86" />
  </defs>
</svg>
